<svg xmlns="http://www.w3.org/2000/svg" viewBox="0 0 512 512" width="512" height="512">
  <defs>
    <linearGradient id="grad1" x1="0%" y1="0%" x2="100%" y2="100%">
      <stop offset="0%" style="stop-color:#3b82f6;stop-opacity:1" />
      <stop offset="100%" style="stop-color:#8b5cf6;stop-opacity:1" />
    </linearGradient>
  </defs>
  <rect x="0" y="0" width="512" height="512" rx="128" fill="url(#grad1)" />
  <path d="M352 144H160c-17.7 0-32 14.3-32 32v192c0 17.7 14.3 32 32 32h60.8l45.4 56.7c7.5 9.4 22.1 9.4 29.6 0l45.4-56.7H352c17.7 0 32-14.3 32-32V176c0-17.7-14.3-32-32-32zm-64 192h-64c-8.8 0-16-7.2-16-16s7.2-16 16-16h64c8.8 0 16 7.2 16 16s-7.2 16-16 16zm64-64H160c-8.8 0-16-7.2-16-16s7.2-16 16-16h192c8.8 0 16 7.2 16 16s-7.2 16-16 16zm0-64H160c-8.8 0-16-7.2-16-16s7.2-16 16-16h192c8.8 0 16 7.2 16 16s-7.2 16-16 16z" fill="white" />
  <circle cx="360" cy="140" r="30" fill="#22d3ee" />
</svg>
